<svg width="49" height="43" viewBox="0 0 49 43" fill="none" xmlns="http://www.w3.org/2000/svg">
<g clip-path="url(#clip0_12503_1587)">
<path fill-rule="evenodd" clip-rule="evenodd" d="M30.625 36.8571C32.2337 36.8571 33.8267 36.5393 35.3128 35.9219C36.7991 35.3045 38.1496 34.3996 39.2871 33.2588C40.4246 32.1179 41.3268 30.7635 41.9425 29.2729C42.5581 27.7824 42.875 26.1848 42.875 24.5714C42.875 19.6839 40.939 14.9964 37.4931 11.5405C34.0472 8.08443 29.3733 6.14285 24.5 6.14285C19.6267 6.14285 14.9528 8.08443 11.5069 11.5405C8.06093 14.9964 6.125 19.6839 6.125 24.5714C6.125 26.1848 6.44186 27.7824 7.05747 29.2729C7.67309 30.7635 8.57543 32.1179 9.71294 33.2588C10.8505 34.3996 12.2009 35.3045 13.6872 35.9219C15.1733 36.5393 16.7663 36.8571 18.375 36.8571H30.625ZM24.5 11.0571C20.9262 11.0571 17.4988 12.4809 14.9717 15.0153C12.4447 17.5498 11.025 20.9872 11.025 24.5714C11.025 25.5394 11.2151 26.4979 11.5845 27.3923C11.9539 28.2867 12.4952 29.0993 13.1778 29.7838C13.8603 30.4683 14.6705 31.0112 15.5623 31.3818C16.4541 31.7522 17.4098 31.9429 18.375 31.9429H30.625C31.5902 31.9429 32.5459 31.7522 33.4377 31.3818C34.3295 31.0112 35.1397 30.4683 35.8222 29.7838C36.5048 29.0993 37.0461 28.2867 37.4155 27.3923C37.7849 26.4979 37.975 25.5394 37.975 24.5714C37.975 20.9872 36.5553 17.5498 34.0283 15.0153C31.5012 12.4809 28.0738 11.0571 24.5 11.0571Z" fill="#0EA5E9"/>
<path fill-rule="evenodd" clip-rule="evenodd" d="M15.925 43C13.8337 43 11.7629 42.5233 9.83077 41.5972C7.8987 40.6711 6.14313 39.3137 4.66432 37.6024C3.18558 35.8911 2.01254 33.8597 1.21222 31.6238C0.411915 29.3879 0 26.9915 0 24.5714C0 18.0547 2.58125 11.8048 7.17589 7.1968C11.7705 2.58877 18.0022 0 24.5 0C30.9978 0 37.2295 2.58877 41.8241 7.1968C46.4188 11.8048 49 18.0547 49 24.5714C49 26.9915 48.588 29.3879 47.7877 31.6238C46.9874 33.8597 45.8144 35.8911 44.3357 37.6024C42.8569 39.3137 41.1013 40.6711 39.1693 41.5972C37.2371 42.5233 35.1663 43 33.075 43H15.925ZM10.6407 10.6717C14.3165 6.9853 19.3017 4.91429 24.5 4.91429C29.6983 4.91429 34.6835 6.9853 38.3593 10.6717C42.035 14.3582 44.1 19.358 44.1 24.5714C44.1 26.4363 43.782 28.2703 43.176 29.9634C42.57 31.6564 41.6961 33.1535 40.6328 34.3839C39.5707 35.613 38.348 36.5441 37.0563 37.1633C35.7677 37.781 34.4172 38.0857 33.075 38.0857H15.925C14.5828 38.0857 13.2323 37.781 11.9437 37.1633C10.652 36.5441 9.42932 35.613 8.3672 34.3839C7.30396 33.1535 6.43006 31.6564 5.82405 29.9634C5.21802 28.2703 4.9 26.4363 4.9 24.5714C4.9 19.358 6.96499 14.3582 10.6407 10.6717Z" fill="#0EA5E9"/>
<path d="M30.625 30.7143H24.4946C24.083 30.7139 23.6745 30.6719 23.275 30.5902C22.5008 30.4317 21.7605 30.1236 21.0972 29.679C20.0899 29.004 19.3048 28.0447 18.8412 26.9222C18.6909 26.5581 18.5765 26.1823 18.4987 25.8C18.3365 25.0033 18.333 24.1782 18.4927 23.3729C18.729 22.1814 19.3124 21.0868 20.169 20.2278C21.0255 19.3687 22.1169 18.7836 23.305 18.5466C23.3423 18.5391 23.3794 18.5321 23.4166 18.5254C23.7757 18.4608 24.1383 18.4286 24.5 18.4286C25.3005 18.4286 26.0972 18.5859 26.8439 18.8962C27.9631 19.361 28.9197 20.1484 29.5927 21.1586C30.2658 22.1688 30.625 23.3565 30.625 24.5714H25.725C25.725 24.3284 25.6532 24.0909 25.5186 23.8888C25.384 23.6868 25.1926 23.5293 24.9688 23.4363C24.745 23.3433 24.4987 23.319 24.261 23.3664C24.0234 23.4139 23.8051 23.5308 23.6338 23.7027C23.4624 23.8745 23.3458 24.0934 23.2985 24.3317C23.2512 24.5701 23.2755 24.8171 23.3682 25.0416C23.461 25.2661 23.618 25.458 23.8194 25.593C24.0209 25.728 24.2577 25.8 24.5 25.8H30.625C30.7858 25.8 30.9452 25.7682 31.0938 25.7065C31.2424 25.6447 31.3774 25.5543 31.4912 25.4401C31.605 25.326 31.6952 25.1906 31.7568 25.0416C31.8183 24.8926 31.85 24.7327 31.85 24.5714C31.85 22.6164 31.0757 20.7415 29.6972 19.3591C28.3188 17.9766 26.4493 17.2 24.5 17.2C24.2886 17.2 24.0781 17.2091 23.8691 17.2271C23.3555 17.2715 22.8505 17.3698 22.3624 17.5187C21.8821 17.665 21.4179 17.8605 20.9773 18.1018C20.4726 18.3782 19.9987 18.7148 19.5669 19.107C19.477 19.1886 19.3889 19.2726 19.3028 19.3591C18.6997 19.9638 18.2123 20.663 17.8547 21.4217C17.676 21.8011 17.5296 22.1954 17.4177 22.6003C17.2895 23.0632 17.2062 23.5399 17.1703 24.024C17.1569 24.2056 17.15 24.3881 17.15 24.5714C17.15 25.5347 17.3383 26.4936 17.7095 27.3923C18.2659 28.7393 19.2079 29.8905 20.4166 30.7005C20.4234 30.7052 20.4303 30.7097 20.4372 30.7143H18.375C17.5707 30.7143 16.7742 30.5554 16.0311 30.2467C15.288 29.9379 14.6128 29.4855 14.044 28.915C13.4752 28.3446 13.0241 27.6674 12.7162 26.9222C12.4084 26.1769 12.25 25.3781 12.25 24.5714C12.25 21.313 13.5407 18.1881 15.8379 15.8841C18.1353 13.5801 21.2511 12.2857 24.5 12.2857C27.7489 12.2857 30.8647 13.5801 33.1621 15.8841C35.4593 18.1881 36.75 21.313 36.75 24.5714C36.75 25.3781 36.5916 26.1769 36.2838 26.9222C35.9759 27.6674 35.5248 28.3446 34.956 28.915C34.3872 29.4855 33.712 29.9379 32.9689 30.2467C32.2258 30.5554 31.4293 30.7143 30.625 30.7143Z" fill="#0EA5E9"/>
</g>
<defs>
<clipPath id="clip0_12503_1587">
<rect width="49" height="43" fill="white"/>
</clipPath>
</defs>
</svg>

